Coordinates
version=1
nRows=54
nColumns=12
inDegrees=yes

Units are S.I. units (second, meters, Newtons, ...)
Angles are in degrees

endheader
time	SC_y	SC_z	SC_x	AC_y	AC_z	AC_x	GH_y	GH_z	GH_yy	EL_x	PS_y
       0.0              -27.41          7.427          75.31          54.71          0.826         -15.78         -55.98          77.15          87.46          85.03          70.77
   0.03823              -27.41          7.427           75.3          54.71         0.8257         -15.78          -56.0          77.14          87.42          85.04          70.78
   0.07646              -27.41          7.427          75.29          54.71         0.8253         -15.78         -56.01          77.13          87.38          85.04          70.78
    0.1147              -27.41          7.426          75.28          54.71         0.8249         -15.77         -56.03          77.11          87.34          85.05          70.79
    0.1529              -27.41          7.426          75.26           54.7         0.8245         -15.77         -56.04           77.1          87.29          85.06          70.79
    0.1911              -27.41          7.425          75.25           54.7         0.8241         -15.77         -56.06          77.08          87.24          85.07           70.8
    0.2294               -27.4          7.425          75.24           54.7         0.8236         -15.76         -56.08          77.06          87.19          85.08           70.8
    0.2676               -27.4          7.424          75.22           54.7         0.8232         -15.76          -56.1          77.05          87.14          85.08          70.81
    0.3058               -27.4          7.424           75.2          54.69         0.8226         -15.75         -56.12          77.03          87.08          85.09          70.81
    0.3441               -27.4          7.423          75.19          54.69         0.8221         -15.75         -56.15          77.01          87.01          85.11          70.82
    0.3823              -27.39          7.423          75.17          54.69         0.8215         -15.74         -56.17          76.99          86.95          85.12          70.82
    0.4205              -27.39          7.422          75.15          54.69         0.8208         -15.73          -56.2          76.96          86.87          85.13          70.83
    0.4588              -27.39          7.421          75.12          54.68         0.8201         -15.73         -56.23          76.94          86.79          85.14          70.84
     0.497              -27.38           7.42           75.1          54.68         0.8193         -15.72         -56.26          76.91          86.71          85.16          70.85
    0.5352              -27.38          7.419          75.07          54.67         0.8185         -15.71         -56.29          76.88          86.62          85.17          70.86
    0.5734              -27.38          7.418          75.04          54.67         0.8176          -15.7         -56.33          76.85          86.51          85.19          70.87
    0.6117              -27.37          7.417          75.01          54.66         0.8166         -15.69         -56.37          76.81          86.41          85.21          70.88
    0.6499              -27.37          7.416          74.98          54.66         0.8156         -15.68         -56.42          76.77          86.29          85.23          70.89
    0.6881              -27.36          7.415          74.94          54.65         0.8144         -15.67         -56.46          76.73          86.16          85.25           70.9
    0.7264              -27.36          7.414           74.9          54.65         0.8132         -15.66         -56.52          76.69          86.02          85.27          70.91
    0.7646              -27.35          7.412          74.86          54.64         0.8118         -15.65         -56.57          76.63          85.86           85.3          70.93
    0.8028              -27.34          7.411          74.81          54.63         0.8102         -15.63         -56.64          76.58          85.69          85.33          70.95
    0.8411              -27.33          7.409          74.76          54.62         0.8085         -15.62         -56.71          76.52           85.5          85.36          70.96
    0.8793              -27.33          7.407           74.7          54.62         0.8067          -15.6         -56.79          76.45          85.29           85.4          70.98
    0.9175              -27.32          7.405          74.63          54.61         0.8046         -15.58         -56.87          76.38          85.06          85.44          71.01
    0.9557              -27.31          7.402          74.56          54.59         0.8023         -15.56         -56.97          76.29           84.8          85.48          71.03
     0.994              -27.29          7.399          74.48          54.58         0.7997         -15.53         -57.08           76.2           84.5          85.53          71.06
     1.032              -27.28          7.396          74.38          54.57         0.7967          -15.5          -57.2          76.09          84.18          85.59          71.09
      1.07              -27.26          7.393          74.28          54.55         0.7934         -15.47         -57.34          75.97           83.8          85.65          71.13
     1.109              -27.25          7.389          74.16          54.53         0.7897         -15.43         -57.49          75.84          83.38          85.72          71.17
     1.147              -27.23          7.384          74.02          54.51         0.7854         -15.39         -57.67          75.68           82.9           85.8          71.21
     1.185              -27.21          7.379          73.87          54.49         0.7805         -15.34         -57.88           75.5          82.35           85.9          71.27
     1.223              -27.18          7.373          73.69          54.46         0.7748         -15.29         -58.11           75.3          81.72           86.0          71.33
     1.262              -27.15          7.366          73.48          54.43         0.7682         -15.23         -58.39          75.06          80.98          86.13           71.4
       1.3              -27.11          7.358          73.23          54.39         0.7605         -15.15         -58.71          74.78          80.11          86.28          71.48
     1.338              -27.07          7.348          72.94          54.34         0.7514         -15.06         -59.09          74.45          79.09          86.45          71.58
     1.376              -27.02          7.337           72.6          54.29         0.7405         -14.96         -59.54          74.06          77.88          86.65           71.7
     1.414              -26.96          7.323          72.19          54.23         0.7276         -14.83         -60.08          73.59          76.42           86.9          71.84
     1.453              -26.89          7.306          71.69          54.15         0.7119         -14.68         -60.73          73.02          74.67           87.2          72.01
     1.491               -26.8          7.286          71.09          54.05         0.6927         -14.49         -61.53          72.33          72.52          87.56          72.22
     1.529              -26.69          7.261          70.34          53.94         0.6691         -14.27         -62.51          71.47          69.87          88.01          72.47
     1.567              -26.56           7.23           69.4          53.79         0.6396         -13.98         -63.74           70.4          66.56          88.57          72.79
     1.606              -26.39           7.19          68.22          53.61         0.6024         -13.62         -65.28          69.06           62.4          89.28          73.19
     1.644              -26.17           7.14          66.73          53.38         0.5552         -13.16         -67.25          67.35           57.1          90.18           73.7
     1.682               -25.9          7.076          64.81          53.08         0.4947         -12.58         -69.76          65.16          50.32          91.32          74.35
      1.72              -25.54          6.994          62.35           52.7         0.4172         -11.83         -72.99          62.35          41.63           92.8          75.19
     1.759              -25.09          6.889          59.21          52.21         0.3181         -10.87         -77.11          58.76          30.52          94.68          76.26
     1.797              -24.52          6.757          55.26           51.6         0.1934         -9.662          -82.3          54.25          16.55          97.05          77.61
     1.835              -23.82          6.596          50.45          50.85         0.0416         -8.192         -88.61          48.75        -0.4652          99.93          79.25
     1.873              -23.01           6.41          44.87          49.98        -0.1344         -6.488         -95.93          42.38         -20.19          103.3          81.15
     1.911              -22.14          6.208          38.83          49.04         -0.325         -4.644         -103.9          35.48         -41.56          106.9          83.21
      1.95              -21.27          6.006          32.79           48.1        -0.5156         -2.799         -111.8          28.58         -62.92          110.5          85.27
     1.988              -20.46           5.82          27.21          47.24        -0.6916         -1.095         -119.1          22.21         -82.65          113.9          87.17
     2.026              -19.76          5.659           22.4          46.49        -0.8434         0.3745         -125.4          16.71         -99.67          116.7          88.81
